<svg width="30" height="29" viewBox="0 0 30 29" fill="none" xmlns="http://www.w3.org/2000/svg">
<path d="M29.473 11.1595L25.7193 8.10024V3.20756C25.7193 2.6566 25.271 2.20829 24.72 2.20829H22.3581C21.8072 2.20829 21.3589 2.6566 21.3589 3.20756V4.5463L16.3432 0.458482C15.9803 0.162881 15.5022 0 14.9967 0C14.4933 0 14.0173 0.161881 13.6565 0.455938L0.52677 11.1595C-0.0697925 11.6455 -0.0340005 12.069 0.0403994 12.2781C0.114618 12.4868 0.353624 12.8369 1.11997 12.8369H2.91783V26.9126C2.91783 27.9172 3.73287 28.7343 4.73468 28.7343H10.4123C11.4057 28.7343 12.1838 27.9341 12.1838 26.9126V21.1404C12.1838 20.6457 12.6384 20.1952 13.1376 20.1952H16.953C17.4288 20.1952 17.816 20.6192 17.816 21.1404V26.9126C17.816 27.9001 18.6688 28.7343 19.6783 28.7343H25.2651C26.2669 28.7343 27.0819 27.9171 27.0819 26.9126V12.8369H28.8798C29.6461 12.8369 29.8851 12.4868 29.9594 12.2781C30.0338 12.069 30.0696 11.6456 29.473 11.1595Z" fill="white"/>
</svg>
